PathFileType	4	(X/Y/Z)	testWalking.trc	
DataRate	CameraRate	NumFrames	NumMarkers	Units	OrigDataRate	OrigDataStartFrame	OrigNumFrames
120	120	9	28	mm	120	295	183
Frame#	Time	RSHO			LSHO			C7			RASI			LASI			SACR			RTHAP			RTHAD			RTHLD			RLEPI			RTIAP			RTIAD			RLMAL			RHEEL			RP1MT			RP5MT			RTOE			LTHAP			LTHAD			LTHLD			LLEPI			LTIAP			LTIAD			LLMAL			LHEEL			LP1MT			LP5MT			LTOE			
		X1	Y1	Z1	X2	Y2	Z2	X3	Y3	Z3	X4	Y4	Z4	X5	Y5	Z5	X6	Y6	Z6	X7	Y7	Z7	X8	Y8	Z8	X9	Y9	Z9	X10	Y10	Z10	X11	Y11	Z11	X12	Y12	Z12	X13	Y13	Z13	X14	Y14	Z14	X15	Y15	Z15	X16	Y16	Z16	X17	Y17	Z17	X18	Y18	Z18	X19	Y19	Z19	X20	Y20	Z20	X21	Y21	Z21	X22	Y22	Z22	X23	Y23	Z23	X24	Y24	Z24	X25	Y25	Z25	X26	Y26	Z26	X27	Y27	Z27	X28	Y28	Z28	

161	1.33333	1949.56628	1449.06982	131.00282	1902.89905	1462.58789	-239.73203	1880.57910	1536.18384	-53.97810	1962.56543	991.24213	86.45537	1923.86182	993.59949	-184.54451	1763.36365	1030.48096	-25.03825	2097.57910	753.84424	49.52000	2133.31641	655.96686	70.90538	2055.78442	646.67108	132.10884	2085.83594	541.44788	113.89507	2085.44360	380.59644	40.30765	2045.35681	267.53049	37.19539	1957.92151	139.99245	78.82982	1901.68237	112.93880	24.45380	2062.28076	47.92556	119.06206	2092.19751	47.33736	-0.08696	2133.75073	55.58081	50.14494	1923.71252	666.08185	-125.90855	1897.97131	588.26642	-118.33660	1814.58704	608.06635	-177.13773	1792.59583	509.13004	-158.63925	1801.89746	351.44122	-79.52886	1784.38403	244.51505	-74.35786	1711.92981	93.53447	-100.58469	1664.38477	59.27769	-39.63641	1839.33582	26.65273	-145.49542	1872.48254	37.34842	-29.47296	1909.64990	40.68715	-64.54716	
162	1.34167	1959.15613	1447.08752	131.35136	1914.49133	1461.22717	-239.66624	1891.13647	1534.52258	-53.87280	1972.87842	989.45361	86.05693	1934.35571	992.15179	-184.75868	1773.99304	1029.10229	-25.07024	2108.57031	753.02124	48.78043	2144.64844	655.18042	69.80736	2067.10986	645.35449	130.58018	2097.24512	539.97192	112.19475	2104.79565	378.90964	39.33957	2071.47217	263.64560	36.50381	1991.90796	131.28958	78.53084	1937.22888	100.69753	24.19691	2101.57275	45.78683	118.95680	2131.67969	47.06090	-0.07887	2172.73242	58.02830	50.39471	1930.56384	664.34882	-125.94776	1904.07983	586.73596	-118.17004	1821.04749	607.29803	-177.19191	1797.79712	508.66019	-158.57808	1805.11023	350.95895	-79.19633	1786.42358	244.17529	-73.97572	1712.05518	93.54951	-100.28754	1664.75403	59.82097	-38.97528	1839.30530	26.64750	-145.38930	1872.43347	37.44334	-29.69945	1909.75671	40.46357	-64.48698	
163	1.35000	1968.84399	1445.01721	131.70137	1926.16956	1459.73474	-239.57535	1901.74463	1532.76123	-53.75322	1983.71606	987.61011	85.83424	1944.71936	990.48187	-184.95798	1784.71106	1027.63416	-25.02130	2119.25854	751.63177	48.05978	2155.55835	653.73743	68.67403	2077.85156	643.51752	129.00890	2107.92432	537.97296	110.44215	2123.68530	377.11209	38.28372	2097.50024	260.13718	35.78386	2026.73242	123.11433	78.36479	1973.98303	88.94997	24.12390	2140.85205	44.58208	118.83492	2171.06348	47.86699	-0.13477	2211.52661	61.49710	50.70058	1937.53931	662.57776	-125.94766	1910.21460	585.23956	-118.03650	1827.62122	606.49731	-177.21169	1803.16724	508.24057	-158.49635	1808.36426	350.44601	-78.91885	1788.57202	243.73468	-73.81937	1712.51465	93.77036	-99.79946	1665.01453	60.52999	-38.39580	1839.26880	26.62707	-145.29643	1872.30652	37.59893	-29.64136	1909.71875	40.26491	-64.48370	
164	1.35833	1978.63721	1442.81702	132.11736	1937.90601	1458.08496	-239.40781	1912.45276	1530.91931	-53.61694	1994.62854	985.65198	85.68846	1955.16797	988.64923	-185.12682	1795.53369	1026.01880	-24.91568	2129.63892	749.62976	47.38423	2166.06543	651.61884	67.46901	2088.00024	641.16364	127.35857	2117.97534	535.48322	108.61174	2142.09863	375.34213	37.17250	2123.36646	257.06186	34.98822	2061.80933	115.69589	78.18538	2011.78186	78.05397	23.91257	2179.99194	44.45855	118.63850	2210.16870	49.75231	-0.36081	2249.63599	65.84947	50.47826	1944.67944	660.73022	-125.92287	1916.37000	583.68835	-117.91192	1834.15552	605.73230	-177.19817	1808.48279	507.68433	-158.43629	1811.72278	349.91757	-78.65265	1790.82715	243.48865	-73.80451	1713.51196	94.33788	-99.00866	1665.22559	61.30433	-37.95197	1839.22424	26.59739	-145.21935	1872.34875	37.60744	-29.56252	1910.13513	39.96498	-64.63125	
165	1.36667	1988.03418	1440.48230	132.54280	1949.69983	1456.33252	-239.23740	1923.29102	1529.04871	-53.37427	2005.68372	983.57471	85.63539	1965.73584	986.73132	-185.27333	1806.52344	1024.25293	-24.76093	2139.72925	746.97791	46.76498	2176.18604	648.81744	66.22092	2097.61670	638.31976	125.61220	2127.40405	532.49969	106.85478	2160.03564	373.72720	36.17799	2148.98389	254.47995	34.20113	2096.17725	109.57800	77.94249	2049.09790	68.99878	23.46992	2218.93579	45.60025	118.11479	2248.58838	52.88279	-0.82060	2286.95874	71.28397	49.85307	1951.98523	658.78650	-125.86038	1922.69189	582.07025	-117.87568	1840.67896	604.98291	-177.17751	1813.84473	507.09500	-158.40379	1815.20862	349.35980	-78.47457	1793.06018	243.55266	-73.61578	1714.30627	94.86619	-98.60957	1665.47180	62.06946	-37.64886	1839.17761	26.54309	-145.17554	1872.47424	37.52741	-29.59572	1910.52527	39.68998	-64.77375	
166	1.37500	1997.02954	1438.04907	132.89964	1961.60840	1454.51526	-239.04509	1934.13171	1526.99133	-53.12578	2016.90845	981.36542	85.59520	1976.42493	984.80109	-185.31879	1817.68921	1022.34137	-24.49004	2149.55005	743.70764	46.20164	2185.84180	645.31433	64.89948	2106.62671	634.94049	123.88606	2136.37451	529.18408	105.31795	2177.59351	372.29141	35.34682	2174.25024	252.57086	33.56584	2130.37354	104.92467	77.49928	2085.92944	61.71290	22.98671	2257.30981	47.99915	117.21806	2286.13770	57.43888	-1.42754	2323.47925	78.01519	49.11905	1959.45874	656.78601	-125.94127	1929.19336	580.41077	-117.93693	1847.24219	604.20728	-177.17384	1819.31958	506.63083	-158.37988	1818.75183	348.79425	-78.46111	1795.28979	243.52129	-73.40249	1714.76672	95.35416	-98.63253	1665.64172	62.98006	-37.48073	1839.16260	26.47318	-145.17761	1872.59766	37.48223	-29.65164	1910.96216	39.40651	-64.77023	
167	1.38333	2006.54468	1435.61670	133.34343	1973.63135	1452.56714	-238.76418	1944.99243	1524.73743	-52.86700	2028.48462	978.88049	85.57762	1987.26001	982.85138	-185.31186	1828.97375	1020.27887	-24.17525	2159.06909	739.80792	45.66422	2194.93701	641.05750	63.47824	2114.97412	631.04639	122.28682	2145.04077	525.45111	103.68758	2194.88916	371.01004	34.61330	2199.03345	251.42725	33.06761	2165.06982	101.24605	76.99025	2122.35156	55.90617	22.53134	2294.52686	51.55763	116.37733	2322.63867	63.48262	-2.13649	2358.73267	86.05434	48.38916	1967.08948	654.78943	-126.08856	1935.80017	578.72638	-118.05714	1853.92444	603.44171	-177.23668	1824.96387	506.21393	-158.45502	1822.37830	348.28537	-78.60233	1797.61902	243.33400	-73.38846	1715.01624	96.01934	-98.67728	1665.82935	64.07590	-37.43890	1839.18188	26.43139	-145.19743	1872.70496	37.44001	-29.71648	1911.69727	39.04595	-64.70708	
168	1.39167	2016.66968	1433.26563	133.91862	1985.69861	1450.50354	-238.41879	1956.05664	1522.48657	-52.51852	2040.55310	976.23248	85.65932	1998.21057	980.84894	-185.31667	1840.37488	1018.03619	-23.88690	2168.25781	735.25269	45.08894	2203.43237	636.07635	61.94063	2122.81079	626.76099	120.82814	2153.46509	521.24786	101.84386	2211.86548	370.00858	33.96173	2223.16870	251.06865	32.60715	2198.98462	98.53130	76.73833	2157.62549	51.67765	22.04494	2330.43335	56.30807	115.85884	2357.48218	70.89971	-2.97162	2392.46802	95.34051	47.75540	1974.86987	652.73804	-126.18848	1942.57458	577.01160	-118.27303	1860.82239	602.73010	-177.37115	1830.81299	505.76843	-158.66890	1826.17456	347.79626	-78.89147	1800.04797	243.14229	-73.49278	1715.26575	96.88107	-98.71301	1666.22961	65.22884	-37.47035	1839.20361	26.39167	-145.21573	1872.77368	37.40040	-29.78528	1912.12988	38.78275	-64.76639	
169	1.40000	2027.01709	1430.99133	134.54518	1997.86401	1448.45801	-237.99939	1967.26404	1520.21179	-52.04309	2052.79761	973.85431	85.71266	2009.29541	978.77661	-185.33635	1851.91589	1015.63000	-23.55994	2177.09229	730.00629	44.42505	2211.23340	630.49011	60.29509	2130.36694	622.15100	119.67393	2161.94580	516.95807	100.05901	2228.30542	369.34616	33.23242	2246.44312	251.37761	32.09900	2230.79639	97.34621	76.52019	2191.57959	48.86426	21.56837	2364.87134	62.40205	115.39339	2390.35425	79.52466	-3.75606	2424.27686	106.23864	46.84932	1982.78833	650.58386	-126.37853	1949.56128	575.22394	-118.47420	1868.01160	601.99377	-177.52882	1836.82495	505.21396	-158.93069	1830.15417	347.26352	-79.39922	1802.59033	242.96962	-73.60723	1715.99231	97.76299	-98.82844	1666.59839	66.54266	-37.62662	1839.21460	26.31201	-145.25839	1872.85730	37.37570	-29.87292	1912.21814	38.67039	-64.86990	
